<svg xmlns="http://www.w3.org/2000/svg" id="Layer_1" viewBox="0 0 934.1 390.5"><defs><style>.st0{fill:#47011a}</style></defs><path d="M387.5 9.9c-2.5-1.1-5.8-2-10-2.9q-6.15-1.2-12.9-1.2c-9.8 0-19.4 2.4-28.5 7.2-9 4.7-17.1 11.1-24 19.3-1.4 1.6-2.7 3.3-3.9 5V10h-46.3v204.2h46.3V101.8c0-6.7 1.3-13 3.8-18.6 2.5-5.7 6-10.8 10.4-15.1 4.3-4.3 9.3-7.7 15-10.1s11.7-3.6 17.9-3.6 6.5.4 9.8 1.2c3.5.9 6.6 1.9 9.4 3l3.9 1.7 11.9-49.1-2.8-1.2ZM121.5 0C60.5 0 11 49.5 11 110.5S60.4 221 121.5 221 232 171.5 232 110.5 182.6 0 121.5 0m0 170C88.6 170 62 143.4 62 110.5S88.7 51 121.5 51 181 77.6 181 110.5 154.4 170 121.5 170M483.3 0c-61 0-110.5 49.5-110.5 110.5S422.3 221 483.3 221s110.5-49.5 110.5-110.5S544.3 0 483.3 0m0 170c-32.9 0-59.5-26.6-59.5-59.5S450.4 51 483.3 51s59.5 26.6 59.5 59.5-26.6 59.5-59.5 59.5" class="st0"/><path d="M653.3 0c-61 0-110.5 49.5-110.5 110.5S592.3 221 653.3 221s110.5-49.5 110.5-110.5S714.3 0 653.3 0m0 170c-32.9 0-59.5-26.6-59.5-59.5S620.4 51 653.3 51s59.5 26.6 59.5 59.5-26.7 59.5-59.5 59.5" class="st0"/><path d="M823.3 0c-61 0-110.5 49.5-110.5 110.5S762.3 221 823.3 221s110.5-49.5 110.5-110.5S884.4 0 823.3 0m0 170c-32.9 0-59.5-26.6-59.5-59.5S790.5 51 823.3 51s59.5 26.6 59.5 59.5-26.6 59.5-59.5 59.5M268.4 10H160.1v48.9h108.3zm-32.9 247.3c-14.7-11.9-32-16.8-50.5-16.9-32.6-.3-65.2 0-97.7-.1-8.1 0-16-1.2-23.3-4.9-13.6-6.7-18.6-22.1-11.3-34.5.7-1.2 1.4-2.2 1.9-2.9l-31.1-36c1.4 2.5 1.3 4-.8 5.9-17.8 16.3-25.4 36.2-21.6 60.3 3.9 24.6 15.5 44 37.8 56 14.8 8 31 10.7 47.6 10.8 31 .1 62 0 93 0s8.5.1 12.7.9c7.6 1.3 14.3 4.3 17.2 12.2 3.3 8.8 0 19.8-7.4 25.7-4.9 3.9-10.5 5.4-16.6 5.5-2.3 0-3.4.9-3.4 3.3v45c0 2.3 1.1 3.5 3.5 3.3 3.8-.4 7.7-.7 11.4-1.4 35.1-6.8 65.4-33.9 64.5-76.5-.4-22.4-8.3-41.5-26.1-55.8v.1Z" class="st0"/></svg>