<svg xmlns="http://www.w3.org/2000/svg" fill="#205690" viewBox="0 0 1920 1920"><path d="M197 1540.29h97.05v25.77h-66.83v28.8h55.81v24.71h-55.81v52.97H197V1540.3Zm167.09 0h31.46l47.81 132.24h-31.99l-8.35-25.24h-47.99l-8.18 25.24h-30.39l47.64-132.24Zm-1.96 85.31h33.95l-8-24.71c-5.69-18.13-8.53-35.19-8.53-35.19h-.36s-4.62 22.22-8.89 35.19l-8.18 24.71Zm111.81 5.16h30.57c1.6 14.4 11.02 20.8 28.08 20.8 11.73 0 22.75-4.62 22.75-15.46 0-11.55-11.2-14.04-30.39-18.49-25.77-5.87-46.75-12.26-46.75-39.82s22.4-39.82 51.55-39.82 49.77 13.51 51.72 39.46h-29.68c-1.6-10.31-9.78-16.35-22.93-16.35-12.44 0-20.8 5.33-20.8 13.69 0 10.31 11.38 12.62 32.17 17.24 23.82 5.33 45.68 13.15 45.68 41.06s-23.11 42.66-53.32 42.66c-35.37 0-57.77-16.35-58.66-44.97Zm145.22-90.47H728.3v25.77h-39.46v106.47h-30.39v-106.47h-39.28v-25.77Zm151.8 0h30.39v132.24h-30.39zm175.62 114.46h-.53c-7.82 14.58-21.86 20.8-38.04 20.8-18.84 0-34.13-6.93-44.97-18.49-11.55-12.44-17.6-29.86-17.6-50.12 0-22.57 8.18-42.3 22.93-54.75 10.66-9.07 24.35-14.22 41.77-14.22 33.42 0 52.97 17.77 57.77 43.01h-30.22c-3.2-9.78-11.55-17.95-26.66-17.95-23.46 0-34.84 19.02-34.84 43.9s13.51 43.9 35.19 43.9c18.66 0 29.86-12.62 30.04-25.95v-.53h-26.66v-22.57h55.28v70.74h-20.97zm70.04-114.46h30.22v51.01h49.95v-51.01h30.22v132.24h-30.22v-55.99h-49.95v55.99h-30.22zm159.44 0h99.18v25.24h-68.97v26.31h59.72v24h-59.72v30.75h70.21v25.95h-100.43V1540.3Zm139.36 0h109.14v25.77h-39.46v106.47h-30.39v-106.47h-39.28v-25.77Zm151.8 0h99.18v25.24h-68.97v26.31h59.72v24h-59.72v30.75h70.21v25.95h-100.43V1540.3Zm145.75 0h62.92c25.77 0 45.15 13.69 45.15 37.86 0 15.46-7.64 26.66-24.53 32.17v.53c13.15 4.09 19.02 11.38 20.8 25.6 2.49 17.95 1.42 32.88 5.69 34.66v1.42h-29.86c-3.55-1.96-3.2-16-4.8-30.57-1.6-13.15-8.18-19.91-22.75-19.91h-22.4v50.48h-30.22zm30.22 59.36h26.84c13.51 0 20.8-6.93 20.8-17.42s-6.58-17.95-19.91-17.95h-27.73zm-26.17-666.21c0 3.59-2.92 6.46-6.58 6.46h-148.36c-3.65 0-6.58-2.87-6.58-6.46l2.92-239.86-2.92-249.91c0-3.59 2.92-6.46 6.58-6.46h148.36c3.65 0 6.58 2.87 6.58 6.46l-2.92 249.91zm-698.36 0c0 3.59-2.92 6.46-6.58 6.46H763.72c-3.65 0-6.58-2.87-6.58-6.46l2.92-239.86-2.92-249.91c0-3.59 2.92-6.46 6.58-6.46h148.36c3.65 0 6.58 2.87 6.58 6.46l-2.92 249.91zm24.87-148.41c-.73-4.38 2.19-7.31 6.58-7.31h149.09c3.65 0 5.85 2.19 7.31 5.85 9.5 42.39 40.2 59.93 89.16 59.93 45.31 0 70.89-10.96 70.89-38 0-80.39-313.54-8.04-313.54-219.99 0-99.4 75.28-166.63 222.18-166.63 123.51 0 216.33 43.12 236.06 156.4 1.46 4.38-1.46 7.31-5.85 7.31h-149.83c-3.65 0-5.85-2.19-6.58-5.85-5.12-27.04-29.97-42.39-73.09-42.39-35.08 0-61.39 9.5-61.39 35.08 0 75.28 316.46 8.04 316.46 213.41 0 111.82-86.97 175.4-237.53 175.4S961.77 895.39 943.5 785.03ZM366.15 934.95c.6 1.93 2.66 2.99 4.59 2.36 30.69-9.98 64.87-15.29 102.07-15.29 39.26 0 75.4 5.91 107.72 17.11a3.61 3.61 0 0 0 4.66-2.37l146.35-491.67c1.46-5.12-1.46-7.31-5.85-7.31H580.25c-3.65 0-6.58 1.46-7.31 5.85l-86.85 336.53c-.23.9-1.51.91-1.75 0l-90.47-336.53c-.73-4.39-3.65-5.85-7.31-5.85h-165.9c-4.38 0-7.31 2.19-5.85 7.31l151.33 489.86ZM197 1217.38c0-162.25 106.7-271.15 275.53-271.15s276.26 105.24 276.26 271.15c0 152.02-108.17 266.76-276.26 266.76S197 1370.13 197 1217.38m385.16 0c0-92.09-34.35-152.75-109.63-152.75s-108.9 57.01-108.9 152.75c0 90.63 37.27 148.36 110.36 148.36s108.17-57.01 108.17-148.36m653.36 110.54c-.73-4.39 2.19-7.31 6.58-7.31h149.09c3.65 0 5.85 2.19 7.31 5.85 9.5 42.39 40.2 59.93 89.16 59.93 45.31 0 70.89-10.96 70.89-38 0-80.39-313.54-8.04-313.54-219.99 0-99.4 75.28-166.63 222.18-166.63 123.51 0 216.33 43.12 236.07 156.4 1.46 4.38-1.46 7.31-5.85 7.31h-149.82c-3.65 0-5.85-2.19-6.58-5.85-5.12-27.04-29.96-42.39-73.08-42.39-35.08 0-61.39 9.5-61.39 35.08 0 75.28 316.46 8.04 316.46 213.41 0 111.82-86.97 175.4-237.53 175.4s-231.68-62.85-249.95-173.21m-6.78-346.84c-11.18.72-22.73 1.09-34.65 1.09-40.3 0-76.46-4.4-108.33-12.91l-.72 241.63 2.59 31.67c.08.97-1.22 1.36-1.69.51L934.49 971.9c-1.46-2.92-4.38-4.39-8.04-4.39H762.74c-3.65 0-6.58 2.92-6.58 6.58l2.19 253.61-2.19 244.84c0 3.65 2.92 6.58 6.58 6.58h130.82c3.63 0 6.58-2.94 6.58-6.58v-227.3l-2.64-38.29c-.07-.97 1.23-1.35 1.69-.5l147.12 268.27c1.46 2.92 3.65 4.38 7.31 4.38h169.56c3.65 0 6.58-2.92 6.58-6.58l-2.92-244.84 1.91-246.62Z"/></svg>